<svg width="109" height="99" viewBox="0 0 109 99" fill="none" xmlns="http://www.w3.org/2000/svg">
<path d="M48.9983 0.995001C41.845 2.41333 34.815 7.285 32.04 12.835C31.3 14.3767 30.375 17.2133 29.9433 19.1867C29.1417 23.3183 28.525 24.3667 26.9217 24.3667C24.3933 24.3667 24.0233 20.235 26.12 14.3767C26.9217 12.0333 26.9217 12.0333 25.2567 12.0333C22.2967 12.0333 15.76 13.8833 12.6767 15.5483C8.66833 17.7067 3.85833 22.9483 1.82333 27.265C0.343333 30.4717 0.158333 31.52 0.158333 37.625C0.158333 43.7917 0.281666 44.7167 1.885 47.9233C4.475 53.165 8.48333 57.235 13.54 59.825C15.945 60.9967 18.2883 61.9833 18.72 61.9833C19.3367 61.9833 19.5833 60.4417 19.7067 55.6317C19.8917 49.5883 19.9533 49.3417 21.31 49.1567C24.5167 48.6633 24.5783 48.8483 24.085 69.7533C23.9 80.4217 23.9617 89.1167 24.2083 89.1167C24.5167 89.1167 26.4283 88.4383 28.525 87.575C34.3833 85.2317 43.14 84.06 54.7333 84.1217C67.4367 84.1217 74.59 85.2933 83.285 88.8083C84.2717 89.24 84.3333 88.13 84.3333 70.8017C84.3333 51.685 84.4567 50.8833 86.9233 50.8833C88.5883 50.8833 89.2667 52.8567 89.2667 57.6667C89.2667 61.9217 89.3283 62.045 90.685 61.6133C97.4067 59.5783 103.512 54.3983 106.657 47.985C108.568 44.1 108.692 43.36 108.692 37.625C108.692 31.9517 108.507 31.0883 106.718 27.265C102.032 17.3983 91.055 11.1083 80.325 12.2183L76.9333 12.5883L73.11 8.70333C68.7933 4.38667 64.3533 2.04333 58.8033 0.995001C54.61 0.193334 53.13 0.255001 48.9983 0.995001ZM53.7467 6.23667C55.7817 8.27167 54.7333 9.62833 50.4167 10.8C44.805 12.28 40.8583 16.165 39.3783 21.7767C38.6383 24.49 37.405 25.2917 35.555 24.3667C33.8283 23.38 34.075 20.235 36.295 15.8567C38.515 11.355 42.2767 7.96333 46.9017 6.42167C50.91 5.00333 52.5133 5.00333 53.7467 6.23667ZM90.0067 19.0633C96.1733 20.9133 101.97 26.895 101.477 30.965C101.353 32.3217 100.922 32.7533 99.6267 32.8767C98.2083 33.0617 97.6533 32.63 96.1733 30.2867C94.0767 26.895 91.055 24.49 88.095 23.9967C84.8267 23.38 83.7167 22.64 83.7167 20.975C83.7167 19.5567 85.0733 18.2617 86.5533 18.2C86.9233 18.2 88.465 18.57 90.0067 19.0633ZM19.5833 22.5167C20.385 23.9967 19.9533 24.7983 16.9933 27.3883C13.8483 30.1017 12.4917 33.8633 12.985 38.4883C13.4167 42.62 12.6767 43.915 10.025 43.2367C7.065 42.4967 6.63333 34.6033 9.34667 29.115C12.3067 22.9483 17.9183 19.3717 19.5833 22.5167ZM40.18 44.47C41.0433 45.2717 41.1667 47.43 41.1667 58.5917V71.7267L50.0467 71.4183C58.6183 71.0483 58.9267 71.11 59.605 72.405C60.0983 73.33 60.16 74.07 59.6667 74.9333C59.1117 75.9817 58.3717 76.1667 54.8567 76.1667C49.1833 76.1667 41.2283 77.215 35.37 78.695C29.9433 80.0517 28.6483 79.6817 28.9567 76.845C29.08 75.55 29.6967 75.0567 32.225 74.1933L35.3083 73.2067L35.6167 58.9617C35.8633 47.1833 36.11 44.5933 36.85 44.1C38.2067 43.2367 39.07 43.36 40.18 44.47ZM55.2883 46.8133C55.7817 47.3683 55.9667 50.39 55.8433 56.125C55.6583 63.4633 55.535 64.6967 54.61 65.3133C53.8083 65.8067 53.1917 65.8067 52.4517 65.3133C51.465 64.6967 51.3417 63.4633 51.1567 56.125C50.9717 47.3683 51.3417 45.95 53.5 45.95C54.1167 45.95 54.9183 46.32 55.2883 46.8133ZM72.555 53.5967C73.0483 54.1517 73.2333 56.495 73.11 60.1333C72.9867 64.82 72.74 65.9917 71.8767 66.5467C71.075 67.04 70.4583 67.04 69.7183 66.5467C68.7933 65.9917 68.5467 64.82 68.4233 60.1333C68.2383 54.2133 68.7317 52.7333 70.7667 52.7333C71.3833 52.7333 72.185 53.1033 72.555 53.5967Z" fill="#7DAA92"/>
<path d="M49.1833 88.9317C38.885 89.4867 30.6833 91.645 30.6833 93.7417C30.6833 95.0983 35.37 97.0717 41.105 98.12C53.3767 100.278 75.3917 98.12 77.6733 94.4817C78.5367 93.1867 78.2283 92.755 75.5767 91.5833C71.3217 89.7333 58.0633 88.3767 49.1833 88.9317Z" fill="#7DAA92"/>
</svg>
